<svg height="512pt" viewBox="0 0 512 512" width="512pt" xmlns="http://www.w3.org/2000/svg"><path d="m512 256c0 141.386719-114.613281 256-256 256s-256-114.613281-256-256 114.613281-256 256-256 256 114.613281 256 256zm0 0" fill="#00edff"/><path d="m512 256c0-5.792969-.210938-11.535156-.589844-17.230469l-112.699218-112.699219-289.425782 255.308594 130.066406 130.066406c5.507813.355469 11.054688.554688 16.648438.554688 141.386719 0 256-114.613281 256-256zm0 0" fill="#07bee8"/><path d="m448.996094 256c0 106.589844-86.40625 192.996094-192.996094 192.996094s-192.996094-86.40625-192.996094-192.996094 86.40625-192.996094 192.996094-192.996094 192.996094 86.40625 192.996094 192.996094zm0 0" fill="#4a7aff"/><path d="m63.011719 256.5c.269531 106.359375 86.566406 192.496094 192.988281 192.496094s192.71875-86.136719 192.988281-192.496094zm0 0" fill="#215ed8"/><path d="m183.320312 146.707031h-86.394531c-21.390625 31.074219-33.921875 68.71875-33.921875 109.292969 0 10.410156.835938 20.621094 2.421875 30.585938h74.894531c23.4375 0 42.4375-19 42.4375-42.4375 0-4.375-.660156-8.59375-1.890624-12.5625h2.453124c23.4375 0 42.4375-19 42.4375-42.4375s-19-42.441407-42.4375-42.441407zm0 0" fill="#fff"/><path d="m63.007812 256.5c.027344 10.234375.855469 20.28125 2.417969 30.085938h74.894531c19.140626 0 35.316407-12.675782 40.605469-30.085938zm0 0" fill="#f2f6fc"/><path d="m448.996094 256c0-47.824219-17.402344-91.578125-46.210938-125.292969h-13.847656c-23.4375 0-42.4375 19-42.4375 42.4375 0 4.375.664062 8.59375 1.890625 12.5625h-2.453125c-23.4375 0-42.4375 19-42.4375 42.4375 0 23.441407 19 42.441407 42.4375 42.441407h48.003906c-8.636718 7.769531-14.070312 19.027343-14.070312 31.558593 0 4.375.660156 8.59375 1.890625 12.5625h-2.453125c-23.4375 0-42.4375 19-42.4375 42.4375 0 23.441407 19 42.441407 42.4375 42.441407h5.636718c39.316407-35.332032 64.050782-86.566407 64.050782-143.585938zm0 0" fill="#fff"/><path d="m314.367188 256.5c7.769531 8.644531 19.035156 14.085938 31.570312 14.085938h48.003906c-8.636718 7.769531-14.070312 19.027343-14.070312 31.5625 0 4.371093.660156 8.589843 1.890625 12.558593h-2.453125c-23.4375 0-42.4375 19.003907-42.4375 42.441407s19 42.4375 42.4375 42.4375h5.636718c39.203126-35.226563 63.898438-86.269532 64.042969-143.085938zm0 0" fill="#f2f6fc"/><path d="m176.320312 316.707031h-102.382812c-.390625 0-.78125.019531-1.171875.03125 10.996094 33.191407 30.753906 62.390625 56.539063 84.847657h47.015624c23.4375 0 42.4375-19 42.4375-42.4375 0-23.441407-19-42.441407-42.4375-42.441407zm0 0" fill="#f2f6fc"/><path d="m267.945312 164.738281c0 50.679688-41.082031 91.761719-91.761718 91.761719-50.675782 0-91.757813-41.082031-91.757813-91.761719 0-50.675781 41.082031-91.757812 91.757813-91.757812 50.679687 0 91.761718 41.082031 91.761718 91.757812zm0 0" fill="#ffd400"/><path d="m247.414062 164.738281c0 39.339844-31.890624 71.230469-71.230468 71.230469s-71.230469-31.890625-71.230469-71.230469c0-39.335937 31.890625-71.226562 71.230469-71.226562s71.230468 31.890625 71.230468 71.226562zm0 0" fill="#ffa300"/><path d="m216.804688 180.238281c0-10.644531-5.96875-19.917969-14.734376-24.652343 2.433594-3.714844 3.859376-8.148438 3.859376-12.914063 0-9.414063-5.542969-17.554687-13.53125-21.34375v-12.921875h-14.042969v10.65625h-7.363281v-10.65625h-14.046876v10.65625h-6.191406v89.171875h6.191406v10.65625h14.046876v-10.65625h7.363281v10.65625h14.042969v-10.894531c13.746093-1.769532 24.40625-13.539063 24.40625-27.757813zm-52.003907-47.132812h17.515625c5.277344 0 9.566406 4.289062 9.566406 9.566406 0 5.273437-4.289062 9.566406-9.566406 9.566406h-17.515625zm24.007813 61.085937h-24.007813v-27.910156h24.007813c7.691406 0 13.953125 6.261719 13.953125 13.957031 0 7.691407-6.261719 13.953125-13.953125 13.953125zm0 0" fill="#ffd400"/><path d="m410.601562 381.746094c0 29.355468-23.792968 53.152344-53.148437 53.152344-29.351563 0-53.148437-23.796876-53.148437-53.152344 0-29.351563 23.796874-53.148438 53.148437-53.148438 29.355469 0 53.148437 23.796875 53.148437 53.148438zm0 0" fill="#fcaf15"/><path d="m398.710938 381.746094c0 22.789062-18.472657 41.261718-41.257813 41.261718s-41.257813-18.472656-41.257813-41.261718c0-22.785156 18.472657-41.257813 41.257813-41.257813s41.257813 18.472657 41.257813 41.257813zm0 0" fill="#fe8205"/><path d="m380.980469 390.722656c0-6.164062-3.457031-11.535156-8.535157-14.277344 1.414063-2.152343 2.238282-4.71875 2.238282-7.480468 0-5.453125-3.210938-10.167969-7.835938-12.363282v-7.484374h-8.136718v6.171874h-4.265626v-6.171874h-8.132812v6.171874h-3.589844v51.652344h3.589844v6.171875h8.132812v-6.171875h4.265626v6.171875h8.136718v-6.3125c7.960938-1.023437 14.132813-7.839843 14.132813-16.078125zm-30.121094-27.296875h10.148437c3.054688 0 5.539063 2.484375 5.539063 5.539063 0 3.054687-2.484375 5.542968-5.539063 5.542968h-10.148437zm13.90625 35.378907h-13.90625v-16.164063h13.90625c4.457031 0 8.082031 3.628906 8.082031 8.082031 0 4.457032-3.625 8.082032-8.082031 8.082032zm0 0" fill="#fcaf15"/></svg>