<?xml version="1.0" encoding="iso-8859-1"?>
<!-- Generator: Adobe Illustrator 19.0.0, SVG Export Plug-In . SVG Version: 6.00 Build 0)  -->
<svg xmlns="http://www.w3.org/2000/svg" xmlns:xlink="http://www.w3.org/1999/xlink" version="1.1" id="Capa_1" x="0px" y="0px" viewBox="0 0 511.806 511.806" style="enable-background:new 0 0 511.806 511.806;" xml:space="preserve" width="512" height="512">
<g>
	<g>
		<circle style="fill:#5C9CEE;" cx="291.837" cy="271.323" r="170.955"/>
		<path style="fill:#3580D3;" d="M345.362,108.926c51.884,29.351,86.909,85.027,86.909,148.892    c0,94.416-76.539,170.955-170.955,170.955c-18.696,0-36.686-3.012-53.525-8.559c24.82,14.041,53.495,22.064,84.046,22.064    c94.416,0,170.955-76.539,170.955-170.955C462.792,195.602,413.559,131.391,345.362,108.926z"/>
		<path style="fill:#9FD479;" d="M462.792,271.323c0-62.42-33.459-117.017-83.415-146.859    c-18.139,20.827-36.278,41.654-54.417,62.481c-5.644,6.48-11.379,13.104-14.746,21.01c-3.368,7.907-4.037,17.454,0.374,24.83    c6.788,11.35,22.134,13.44,35.357,13.694c15.8,0.304,32.047-0.198,46.857,5.317c14.809,5.514,28.044,18.912,27.74,34.712    c-0.287,14.864-11.863,26.863-16.906,40.849c-5.927,16.438-2.266,35.437,7.392,49.999c2.145,3.235,4.565,6.257,7.199,9.081    C445.91,356.057,462.792,315.662,462.792,271.323z"/>
		<path style="fill:#7DB24F;" d="M462.705,266.084c-0.01-0.333-0.019-0.666-0.031-0.998c-0.06-1.679-0.144-3.351-0.252-5.017    c-0.02-0.312-0.044-0.624-0.066-0.936c-0.116-1.648-0.251-3.291-0.413-4.926c-0.01-0.094-0.017-0.189-0.026-0.283    c-0.171-1.693-0.374-3.376-0.594-5.053c-0.044-0.331-0.086-0.663-0.132-0.994c-0.225-1.638-0.47-3.27-0.741-4.893    c-0.046-0.272-0.095-0.543-0.142-0.815c-0.269-1.567-0.557-3.127-0.869-4.679c-0.031-0.153-0.058-0.308-0.09-0.462    c-0.332-1.631-0.693-3.252-1.071-4.866c-0.074-0.318-0.149-0.636-0.226-0.954c-0.384-1.598-0.788-3.189-1.216-4.769    c-0.058-0.214-0.12-0.426-0.179-0.639c-0.418-1.515-0.855-3.021-1.313-4.518c-0.056-0.185-0.11-0.371-0.167-0.555    c-0.486-1.57-0.998-3.129-1.527-4.679c-0.1-0.293-0.201-0.586-0.303-0.879c-0.54-1.554-1.098-3.099-1.681-4.632    c-0.056-0.146-0.115-0.292-0.171-0.438c-0.567-1.477-1.155-2.944-1.762-4.402c-0.083-0.199-0.163-0.399-0.247-0.598    c-0.633-1.504-1.289-2.996-1.963-4.477c-0.12-0.263-0.241-0.526-0.362-0.789c-0.694-1.504-1.403-2.999-2.138-4.479    c-0.032-0.064-0.065-0.127-0.097-0.191c-0.725-1.454-1.473-2.894-2.238-4.324c-0.109-0.204-0.216-0.408-0.325-0.611    c-0.773-1.432-1.567-2.85-2.379-4.257c-0.132-0.228-0.265-0.454-0.398-0.682c-1.685-2.887-3.452-5.72-5.298-8.496    c-0.132-0.198-0.262-0.397-0.395-0.594c-0.907-1.352-1.833-2.69-2.778-4.014c-0.136-0.191-0.275-0.381-0.412-0.572    c-1.951-2.711-3.979-5.363-6.081-7.952c-0.155-0.191-0.31-0.383-0.466-0.574c-1.033-1.261-2.082-2.507-3.15-3.738    c-0.136-0.156-0.273-0.31-0.409-0.466c-1.086-1.243-2.187-2.473-3.308-3.683c-0.023-0.025-0.046-0.051-0.07-0.076    c-1.13-1.218-2.281-2.416-3.445-3.601c-0.179-0.182-0.357-0.364-0.537-0.545c-1.149-1.159-2.314-2.304-3.496-3.43    c-0.128-0.122-0.258-0.242-0.387-0.364c-1.169-1.107-2.353-2.199-3.554-3.274c-0.081-0.073-0.161-0.146-0.242-0.219    c-1.225-1.092-2.468-2.162-3.723-3.219c-0.207-0.174-0.415-0.348-0.623-0.522c-1.253-1.044-2.519-2.074-3.802-3.083    c-0.12-0.094-0.241-0.186-0.361-0.28c-1.244-0.972-2.502-1.927-3.772-2.866c-0.145-0.107-0.289-0.216-0.434-0.323    c-1.302-0.955-2.62-1.889-3.95-2.808c-0.243-0.168-0.488-0.335-0.733-0.503c-1.34-0.915-2.69-1.816-4.057-2.694    c-0.115-0.074-0.232-0.145-0.347-0.219c-1.305-0.834-2.622-1.648-3.951-2.446c-0.143-0.086-0.286-0.174-0.43-0.26    c-1.571,1.803-3.142,3.607-4.712,5.411c35.327,31.316,57.609,77.017,57.609,127.939c0,36.16-11.236,69.689-30.394,97.31    c1.556,7.893,4.708,15.531,9.15,22.228c2.145,3.235,4.565,6.257,7.199,9.081c0.001-0.001,0.001-0.001,0.002-0.002    c0.589-0.646,1.165-1.302,1.744-1.957c0.298-0.338,0.602-0.672,0.898-1.012c0.525-0.603,1.038-1.215,1.554-1.825    c0.341-0.403,0.685-0.802,1.021-1.208c0.491-0.592,0.973-1.192,1.457-1.791c0.349-0.432,0.701-0.863,1.046-1.299    c0.469-0.592,0.929-1.191,1.39-1.789c0.349-0.453,0.699-0.905,1.044-1.361c0.448-0.594,0.889-1.193,1.329-1.792    c0.346-0.472,0.693-0.943,1.035-1.418c0.428-0.596,0.851-1.197,1.272-1.798c0.341-0.487,0.681-0.976,1.017-1.467    c0.412-0.602,0.819-1.207,1.223-1.815c0.333-0.499,0.663-1,0.99-1.504c0.396-0.608,0.788-1.219,1.176-1.833    c0.324-0.512,0.645-1.027,0.964-1.543c0.379-0.614,0.756-1.229,1.127-1.848c0.315-0.525,0.626-1.054,0.936-1.582    c0.362-0.618,0.724-1.238,1.078-1.861c0.306-0.539,0.607-1.081,0.907-1.623c0.345-0.623,0.691-1.246,1.029-1.873    c0.297-0.552,0.587-1.109,0.878-1.664c0.329-0.627,0.659-1.253,0.98-1.885c0.286-0.563,0.563-1.131,0.843-1.697    c0.313-0.633,0.629-1.264,0.935-1.902c0.278-0.579,0.545-1.164,0.816-1.747c0.294-0.631,0.592-1.26,0.878-1.896    c0.277-0.615,0.541-1.236,0.811-1.854c0.267-0.612,0.54-1.221,0.8-1.837c0.51-1.207,1.006-2.422,1.488-3.643    c0.223-0.564,0.433-1.135,0.65-1.702c0.266-0.696,0.537-1.389,0.794-2.089c0.218-0.592,0.424-1.19,0.635-1.786    c0.242-0.683,0.488-1.364,0.722-2.05c0.205-0.603,0.4-1.211,0.599-1.817c0.225-0.686,0.452-1.371,0.669-2.06    c0.193-0.613,0.375-1.23,0.561-1.847c0.208-0.688,0.416-1.377,0.616-2.069c0.179-0.622,0.349-1.247,0.521-1.871    c0.191-0.695,0.383-1.39,0.565-2.089c0.164-0.625,0.321-1.253,0.477-1.881c0.176-0.704,0.349-1.408,0.516-2.115    c0.149-0.63,0.292-1.261,0.433-1.894c0.16-0.713,0.316-1.428,0.467-2.144c0.133-0.631,0.262-1.263,0.388-1.896    c0.144-0.725,0.283-1.451,0.417-2.178c0.117-0.632,0.232-1.266,0.342-1.901c0.127-0.736,0.248-1.473,0.366-2.212    c0.101-0.632,0.201-1.264,0.295-1.898c0.111-0.751,0.214-1.505,0.316-2.259c0.084-0.627,0.17-1.253,0.247-1.882    c0.095-0.77,0.18-1.542,0.264-2.315c0.068-0.619,0.138-1.238,0.2-1.859c0.079-0.798,0.146-1.6,0.213-2.401    c0.051-0.599,0.106-1.197,0.15-1.798c0.062-0.842,0.111-1.688,0.161-2.533c0.034-0.567,0.073-1.132,0.101-1.701    c0.047-0.945,0.077-1.894,0.108-2.843c0.015-0.47,0.039-0.939,0.05-1.41c0.035-1.425,0.054-2.853,0.054-4.286    C462.792,269.569,462.757,267.824,462.705,266.084z"/>
		<path style="fill:#9FD479;" d="M214.328,252.888c2.173-22.781,49.983-17.06,47.085-56.177    c-2.444-32.99-54.35-39.703-100.098-35.782c-25.218,29.786-40.433,68.31-40.433,110.394c0,16.349,2.299,32.161,6.584,47.133    c40.488,7.774,81.291,8.511,91.934,7.92c26.08-1.449,55.051,64.47,68.815,65.195c13.763,0.724,13.039-47.085,13.763-67.368    C302.703,303.92,212.154,275.669,214.328,252.888z"/>
		<g>
			<polygon style="fill:#ED5575;" points="462.792,101.092 375.866,101.092 375.866,27.929 462.792,27.929 432.368,64.51    "/>
		</g>
		<g>
			<g>
				<path style="fill:#ED5575;" d="M242.605,311.884c0,40.49-20.465,76.196-51.607,97.344      c-18.805,12.764-41.503,20.221-65.946,20.221s-47.14-7.456-65.946-20.221C27.965,388.08,7.5,352.374,7.5,311.884      c0-64.92,52.632-117.552,117.552-117.552S242.605,246.964,242.605,311.884z"/>
				<path style="fill:#F9C295;" d="M125.052,227.427L125.052,227.427c-24.599,0-44.541,19.942-44.541,44.541v21.474      c0,24.599,19.942,44.541,44.541,44.541l0,0c24.599,0,44.541-19.942,44.541-44.541v-21.474      C169.594,247.368,149.652,227.427,125.052,227.427z"/>
				<path style="fill:#444966;" d="M190.998,409.228c-18.805,12.764-41.503,20.221-65.946,20.221s-47.14-7.456-65.946-20.221      c2.148-18.412,14.891-33.563,31.954-39.266l-0.018-0.028c0.586-0.195,1.172-0.378,1.757-0.549      c0.11-0.037,0.207-0.061,0.317-0.098c0.5-0.134,1.013-0.268,1.525-0.403c0.586-0.146,1.196-0.281,1.794-0.403      c0.037-0.012,0.073-0.012,0.097-0.024c0.598-0.122,1.208-0.232,1.819-0.329c0.549-0.098,1.11-0.183,1.684-0.256      c0.086-0.012,0.183-0.024,0.281-0.037c0.61-0.073,1.22-0.134,1.843-0.183c0.488-0.037,0.976-0.073,1.464-0.098      c0.244-0.012,0.476-0.024,0.72-0.024c0.561-0.024,1.135-0.037,1.708-0.037h38.001c0.574,0,1.147,0.012,1.708,0.037      c0.244,0,0.476,0.012,0.72,0.024c0.488,0.024,0.976,0.061,1.464,0.098c0.622,0.049,1.233,0.11,1.843,0.183      c0.098,0.012,0.195,0.024,0.281,0.037c0.574,0.073,1.135,0.159,1.684,0.256c0.61,0.098,1.22,0.207,1.819,0.329      c0.024,0.012,0.061,0.012,0.097,0.024c0.598,0.122,1.208,0.256,1.794,0.403c0.513,0.134,1.025,0.268,1.525,0.403      c0.11,0.037,0.208,0.061,0.317,0.098c0.586,0.171,1.172,0.354,1.757,0.549l-0.018,0.028      C176.107,375.665,188.85,390.817,190.998,409.228z"/>
				<path style="fill:#EBEEF2;" d="M125.052,423.306l34.014-53.369c-4.719-1.581-9.764-2.45-15.015-2.45h-37.998      c-5.251,0-10.296,0.869-15.015,2.45L125.052,423.306z"/>
				<path style="fill:#444966;" d="M154.033,238.165c0-0.002,0.001-0.003,0.001-0.005c-0.082-0.07-0.168-0.136-0.251-0.206      c-0.341-0.288-0.686-0.573-1.036-0.851c-0.16-0.127-0.321-0.251-0.482-0.376c-0.321-0.248-0.644-0.492-0.972-0.731      c-0.191-0.14-0.383-0.278-0.576-0.414c-0.3-0.212-0.603-0.419-0.908-0.624c-0.225-0.15-0.449-0.3-0.676-0.447      c-0.274-0.176-0.551-0.348-0.83-0.518c-0.263-0.162-0.526-0.323-0.792-0.48c-0.235-0.138-0.474-0.269-0.712-0.403      c-0.313-0.176-0.626-0.353-0.944-0.521c-0.164-0.087-0.331-0.168-0.495-0.253c-6.09-3.131-12.988-4.91-20.308-4.91      c-24.599,0-44.541,19.942-44.541,44.541v4.117c6.559,2.894,13.806,4.513,21.436,4.513c15.668,0,29.745-6.785,39.475-17.567      c6.153,9.481,16.36,16.087,28.172,17.345v-8.408C169.594,258.439,163.555,246.33,154.033,238.165z"/>
			</g>
		</g>
	</g>
	<g>
		<path d="M370.49,431.552c3.717-1.828,5.248-6.323,3.421-10.04c-1.829-3.717-6.323-5.25-10.04-3.42    c-22.515,11.072-46.75,16.686-72.034,16.686c-25.256,0-49.467-5.602-71.96-16.649c-3.719-1.827-8.213-0.291-10.038,3.426    c-1.826,3.718-0.293,8.212,3.425,10.038c24.569,12.067,51.006,18.186,78.573,18.186    C319.436,449.778,345.898,443.646,370.49,431.552z"/>
		<path d="M246.097,114.351c14.792-4.302,30.182-6.484,45.74-6.484c18.053,0,35.786,2.921,52.707,8.682    c0.801,0.273,1.616,0.402,2.418,0.402c3.121,0,6.037-1.965,7.099-5.085c1.335-3.921-0.762-8.182-4.683-9.517    c-18.48-6.292-37.84-9.482-57.541-9.482c-16.977,0-33.775,2.382-49.93,7.081c-3.978,1.157-6.264,5.319-5.106,9.296    C237.957,113.222,242.125,115.505,246.097,114.351z"/>
		<path d="M325.59,65.417c0.18,0.45,0.42,0.88,0.69,1.29c0.27,0.41,0.579,0.8,0.93,1.14c1.39,1.4,3.33,2.2,5.3,2.2    c1.98,0,3.91-0.8,5.3-2.2c0.351-0.34,0.67-0.73,0.94-1.14c0.27-0.41,0.5-0.84,0.689-1.29c0.19-0.46,0.33-0.93,0.42-1.41    c0.101-0.48,0.15-0.97,0.15-1.46s-0.05-0.98-0.15-1.47c-0.09-0.48-0.229-0.95-0.42-1.4c-0.189-0.45-0.42-0.89-0.689-1.3    c-0.271-0.41-0.59-0.79-0.94-1.14c-1.39-1.39-3.319-2.19-5.3-2.19c-1.97,0-3.91,0.8-5.3,2.19c-1.4,1.4-2.2,3.33-2.2,5.31    c0,0.49,0.05,0.98,0.15,1.46C325.26,64.487,325.399,64.957,325.59,65.417z"/>
		<path d="M141.819,128.087c1.921,0,3.83-0.73,5.29-2.19c2.94-2.92,2.95-7.67,0.03-10.6c-2.92-2.94-7.67-2.95-10.609-0.03    c-2.931,2.93-2.95,7.67-0.021,10.61C137.97,127.347,139.899,128.087,141.819,128.087z"/>
		<path d="M117.8,148.847c1.35,1.03,2.95,1.53,4.53,1.53c2.26,0,4.5-1.02,5.97-2.97c0.01,0,0.01,0,0.01,0    c2.5-3.3,1.86-8-1.439-10.51c-3.301-2.5-8.011-1.86-10.511,1.44C113.85,141.637,114.5,146.347,117.8,148.847z"/>
		<path d="M302.729,66.447c0.13,0,0.261,0.01,0.391,0.01c3.97,0,7.279-3.11,7.489-7.11c0.21-4.14-2.96-7.67-7.1-7.88    c-4.14-0.22-7.67,2.96-7.88,7.1C295.41,62.697,298.59,66.227,302.729,66.447z"/>
		<path d="M273.5,66.937c0.22,0,0.43-0.01,0.649-0.03c4.131-0.35,7.19-3.98,6.83-8.11c-0.35-4.13-3.979-7.19-8.109-6.83    c-4.13,0.35-7.181,3.98-6.83,8.11C266.37,63.987,269.649,66.937,273.5,66.937z"/>
		<path d="M244.24,71.507c0.55,0,1.119-0.06,1.68-0.19c4.04-0.92,6.56-4.95,5.64-8.99c-0.93-4.03-4.95-6.56-8.979-5.63    c-4.04,0.92-6.57,4.94-5.641,8.98C237.729,69.147,240.819,71.507,244.24,71.507z"/>
		<path d="M189.069,92.597c1.221,0,2.471-0.3,3.62-0.94c0,0.01,0,0.01,0,0.01c3.62-2.01,4.94-6.57,2.931-10.2    c-2-3.62-6.57-4.94-10.19-2.93c-3.63,2-4.939,6.57-2.93,10.19C183.859,91.207,186.43,92.597,189.069,92.597z"/>
		<path d="M164.21,108.697c1.57,0,3.149-0.49,4.5-1.5c3.31-2.49,3.979-7.19,1.49-10.5c-2.49-3.31-7.19-3.98-10.5-1.49    c-3.311,2.48-3.98,7.19-1.49,10.5C159.689,107.667,161.939,108.697,164.21,108.697z"/>
		<path d="M215.91,80.117c0.899,0,1.8-0.16,2.68-0.5c3.87-1.48,5.81-5.81,4.33-9.68c-1.48-3.87-5.82-5.81-9.69-4.33    s-5.8,5.82-4.319,9.68C210.05,78.277,212.899,80.117,215.91,80.117z"/>
		<path d="M101.939,173.907c0.4,0.27,0.841,0.5,1.29,0.69c0.45,0.19,0.931,0.33,1.4,0.43c0.49,0.1,0.979,0.15,1.47,0.15    c1.97,0,3.91-0.81,5.3-2.2c1.4-1.4,2.2-3.33,2.2-5.31c0-1.97-0.8-3.9-2.2-5.3c-1.739-1.74-4.33-2.54-6.77-2.05    c-0.47,0.1-0.95,0.24-1.4,0.43c-0.449,0.19-0.89,0.42-1.29,0.69c-0.42,0.27-0.8,0.59-1.14,0.93c-0.35,0.35-0.66,0.73-0.94,1.14    c-0.27,0.41-0.5,0.84-0.689,1.3c-0.18,0.45-0.33,0.92-0.42,1.4c-0.101,0.48-0.15,0.98-0.15,1.46c0,1.98,0.8,3.91,2.2,5.31    C101.14,173.317,101.52,173.637,101.939,173.907z"/>
		<path d="M204.819,459.297c-0.189-0.45-0.42-0.89-0.689-1.3c-0.271-0.41-0.59-0.79-0.93-1.14c-1.4-1.39-3.33-2.19-5.311-2.19    c-1.97,0-3.91,0.8-5.3,2.19c-0.35,0.35-0.66,0.73-0.93,1.14c-0.271,0.41-0.511,0.85-0.69,1.3c-0.189,0.45-0.33,0.92-0.43,1.4    c-0.101,0.49-0.15,0.98-0.15,1.47c0,0.49,0.05,0.98,0.15,1.46c0.1,0.48,0.24,0.95,0.43,1.41c0.18,0.45,0.42,0.88,0.69,1.29    c0.27,0.41,0.58,0.79,0.93,1.14c1.39,1.4,3.33,2.2,5.3,2.2c1.98,0,3.91-0.8,5.311-2.2c0.34-0.35,0.659-0.73,0.93-1.14    c0.27-0.41,0.5-0.84,0.689-1.29c0.19-0.46,0.33-0.93,0.431-1.41c0.09-0.48,0.14-0.97,0.14-1.46c0-0.49-0.05-0.98-0.14-1.47    C205.149,460.217,205.01,459.747,204.819,459.297z"/>
		<path d="M491.13,222.387c0.84,3.43,3.9,5.72,7.28,5.72c0.59,0,1.189-0.07,1.79-0.21c4.02-0.99,6.479-5.05,5.5-9.07    c-0.98-4.03-5.04-6.49-9.07-5.51C492.609,214.307,490.149,218.367,491.13,222.387z"/>
		<path d="M502.74,242.857c-4.12,0.4-7.131,4.07-6.73,8.2c0.38,3.87,3.64,6.76,7.46,6.76c0.24,0,0.49-0.01,0.74-0.03    c4.12-0.4,7.13-4.07,6.729-8.2C510.54,245.467,506.87,242.457,502.74,242.857z"/>
		<path d="M482.229,194.717c-0.01,0-0.01,0-0.01,0c1.18,2.92,3.99,4.7,6.96,4.7c0.93,0,1.88-0.18,2.8-0.54    c3.84-1.55,5.7-5.92,4.16-9.76c-1.55-3.85-5.92-5.71-9.76-4.16C482.54,186.507,480.68,190.877,482.229,194.717z"/>
		<path d="M469.47,168.587c1.39,2.4,3.91,3.74,6.49,3.74c1.28,0,2.57-0.32,3.76-1.01c3.58-2.08,4.8-6.66,2.72-10.25    c-2.069-3.58-6.659-4.8-10.239-2.73C468.609,160.417,467.39,165.007,469.47,168.587z"/>
		<path d="M470.46,387.027c-3.391-2.38-8.07-1.56-10.45,1.84c-2.37,3.39-1.55,8.06,1.84,10.44c1.311,0.92,2.811,1.36,4.3,1.36    c2.36,0,4.69-1.12,6.15-3.2C474.68,394.077,473.85,389.397,470.46,387.027z"/>
		<path d="M441.7,411.437c-2.83,3.03-2.67,7.77,0.35,10.61c1.45,1.35,3.29,2.02,5.13,2.02c2,0,4-0.8,5.48-2.38    c2.819-3.02,2.67-7.77-0.36-10.6S444.53,408.417,441.7,411.437z"/>
		<path d="M420.39,431.227c-3.229,2.6-3.74,7.32-1.14,10.54c1.479,1.85,3.649,2.8,5.85,2.8c1.65,0,3.311-0.54,4.7-1.66    c3.22-2.59,3.73-7.31,1.13-10.54C428.34,429.137,423.62,428.627,420.39,431.227z"/>
		<path d="M485.03,360.647c-3.69-1.88-8.2-0.4-10.08,3.3c-1.87,3.69-0.391,8.2,3.3,10.08c1.09,0.55,2.25,0.81,3.39,0.81    c2.73,0,5.37-1.5,6.69-4.11C490.2,367.027,488.729,362.517,485.03,360.647z"/>
		<path d="M396.5,447.817c-3.561,2.11-4.73,6.72-2.61,10.28c1.4,2.36,3.891,3.67,6.45,3.67c1.31,0,2.63-0.34,3.83-1.06    c3.56-2.11,4.729-6.71,2.61-10.28C404.67,446.867,400.069,445.697,396.5,447.817z"/>
		<path d="M504.62,272.967c-4.141-0.18-7.63,3.03-7.811,7.17c-0.17,4.14,3.04,7.64,7.181,7.81c0.109,0.01,0.21,0.01,0.319,0.01    c4,0,7.32-3.15,7.49-7.18C511.97,276.637,508.76,273.137,504.62,272.967z"/>
		<path d="M502.29,303.027c-4.07-0.76-7.99,1.93-8.74,6c-0.01,0-0.01,0-0.01,0c-0.75,4.07,1.939,7.99,6.01,8.74    c0.46,0.09,0.92,0.13,1.37,0.13c3.55,0,6.7-2.52,7.37-6.13C509.05,307.697,506.359,303.777,502.29,303.027z"/>
		<path d="M495.72,332.447c-3.92-1.33-8.18,0.78-9.51,4.7c-1.32,3.93,0.78,8.18,4.7,9.51c0.8,0.27,1.609,0.4,2.409,0.4    c3.12,0,6.04-1.97,7.101-5.1C501.75,338.037,499.649,333.777,495.72,332.447z"/>
		<path d="M256.34,473.427c-4.08-0.71-7.96,2.02-8.67,6.1c-0.72,4.08,2.01,7.97,6.1,8.68c0.431,0.07,0.87,0.11,1.29,0.11    c3.58,0,6.75-2.57,7.38-6.21C263.149,478.027,260.42,474.137,256.34,473.427z"/>
		<path d="M285.27,476.387c-4.14-0.13-7.6,3.12-7.729,7.26c-0.13,4.14,3.12,7.6,7.26,7.73c0.08,0,0.16,0,0.24,0    c4.029,0,7.37-3.2,7.49-7.26C292.66,479.977,289.41,476.507,285.27,476.387z"/>
		<path d="M370.52,460.857c-3.83,1.59-5.64,5.98-4.05,9.81c1.2,2.88,3.99,4.62,6.93,4.62c0.96,0,1.931-0.18,2.87-0.58    c3.83-1.58,5.641-5.98,4.05-9.8C378.729,461.077,374.34,459.267,370.52,460.857z"/>
		<path d="M314.34,475.267c-0.01,0-0.01,0-0.01,0c-4.11,0.45-7.09,4.15-6.641,8.27c0.42,3.84,3.67,6.69,7.45,6.69    c0.271,0,0.54-0.02,0.82-0.05c4.12-0.45,7.09-4.15,6.64-8.27S318.45,474.817,314.34,475.267z"/>
		<path d="M228.14,466.407c-0.01,0-0.01,0-0.01,0c-3.94-1.29-8.17,0.86-9.45,4.8c-1.29,3.94,0.86,8.17,4.8,9.46    c0.771,0.25,1.561,0.37,2.33,0.37c3.16,0,6.09-2.01,7.13-5.18C234.22,471.927,232.069,467.687,228.14,466.407z"/>
		<path d="M342.93,470.077c-4.01,1.02-6.43,5.11-5.399,9.12c0.859,3.39,3.909,5.64,7.26,5.64c0.609,0,1.24-0.07,1.87-0.23    c4.01-1.03,6.43-5.12,5.399-9.13C351.03,471.467,346.939,469.047,342.93,470.077z"/>
		<path d="M465.189,135.627c-0.27-0.41-0.58-0.79-0.93-1.13c-0.34-0.35-0.729-0.66-1.14-0.94c-0.4-0.27-0.84-0.5-1.29-0.69    c-0.46-0.18-0.931-0.33-1.41-0.43c-0.96-0.19-1.96-0.19-2.93,0c-0.471,0.1-0.95,0.25-1.4,0.43c-0.45,0.19-0.89,0.42-1.29,0.69    c-0.42,0.28-0.8,0.59-1.14,0.94c-0.351,0.34-0.66,0.72-0.94,1.13c-0.27,0.41-0.5,0.85-0.689,1.3c-0.181,0.45-0.33,0.92-0.421,1.4    c-0.1,0.49-0.149,0.98-0.149,1.47c0,1.97,0.8,3.91,2.2,5.3c0.34,0.35,0.72,0.66,1.14,0.93c0.4,0.27,0.84,0.51,1.29,0.69    c0.45,0.19,0.93,0.33,1.4,0.43c0.489,0.1,0.979,0.15,1.47,0.15s0.979-0.05,1.46-0.15c0.479-0.1,0.95-0.24,1.41-0.43    c0.45-0.18,0.89-0.42,1.29-0.69c0.41-0.27,0.8-0.58,1.14-0.93c1.4-1.39,2.2-3.33,2.2-5.3c0-0.49-0.05-0.98-0.15-1.47    c-0.1-0.48-0.24-0.95-0.43-1.4C465.7,136.477,465.46,136.037,465.189,135.627z"/>
		<path d="M423.769,391.488c5.882-6.455,11.238-13.289,16.061-20.434c0.015-0.022,0.029-0.044,0.044-0.066    c0.853-1.265,1.687-2.54,2.506-3.824c0.19-0.297,0.379-0.595,0.567-0.894c0.639-1.016,1.267-2.038,1.885-3.066    c0.25-0.415,0.504-0.828,0.751-1.246c0.584-0.989,1.154-1.985,1.718-2.985c0.57-1.007,1.125-2.022,1.675-3.04    c0.319-0.592,0.642-1.181,0.954-1.776c0.14-0.266,0.289-0.528,0.427-0.795c0.277-0.533,0.534-1.076,0.805-1.612    c0.298-0.59,0.594-1.18,0.885-1.773c0.394-0.801,0.784-1.604,1.165-2.412c0.323-0.682,0.635-1.369,0.949-2.056    c0.324-0.709,0.654-1.415,0.969-2.128c0.604-1.368,1.188-2.745,1.757-4.127c0.174-0.423,0.34-0.849,0.51-1.274    c0.47-1.168,0.929-2.34,1.374-3.518c0.127-0.337,0.253-0.674,0.378-1.011c6.041-16.275,9.701-33.444,10.789-51.02    c0.021-0.334,0.039-0.669,0.058-1.004c0.074-1.315,0.133-2.631,0.178-3.95c0.014-0.413,0.031-0.826,0.043-1.24    c0.045-1.636,0.074-3.274,0.074-4.916c0-1.99-0.034-3.977-0.101-5.962c-0.012-0.364-0.039-0.725-0.054-1.089    c-0.064-1.632-0.139-3.263-0.248-4.891c-0.011-0.167-0.029-0.332-0.041-0.498c-1.89-27.114-9.927-53.499-23.543-76.97    c-6.907-11.906-15.184-22.946-24.586-32.922c-0.241-0.257-0.488-0.508-0.73-0.763c-1.013-1.062-2.034-2.116-3.073-3.154    c-0.516-0.517-1.042-1.025-1.565-1.536c-0.788-0.768-1.577-1.533-2.379-2.286c-0.723-0.681-1.457-1.351-2.193-2.021    c-0.63-0.573-1.261-1.145-1.9-1.709c-0.875-0.773-1.76-1.536-2.652-2.293c-0.529-0.449-1.059-0.898-1.594-1.341    c-0.982-0.815-1.974-1.618-2.975-2.413c-0.474-0.376-0.948-0.75-1.426-1.121c-1.052-0.818-2.114-1.625-3.186-2.422    c-0.457-0.339-0.916-0.675-1.375-1.009c-1.094-0.796-2.196-1.582-3.31-2.354c-0.466-0.323-0.934-0.64-1.403-0.959    c-1.117-0.759-2.241-1.509-3.378-2.244c-0.486-0.314-0.976-0.622-1.465-0.931c-1.138-0.72-2.282-1.434-3.439-2.13    c-0.104-0.063-0.206-0.13-0.31-0.192v-9.521h79.426c2.909,0,5.556-1.682,6.79-4.315c1.235-2.634,0.836-5.744-1.023-7.98    l-26.436-31.785l26.436-31.786c1.859-2.237,2.259-5.347,1.023-7.98c-1.234-2.633-3.881-4.315-6.79-4.315h-86.926    c-4.143,0-7.5,3.358-7.5,7.5v73.163v24.594l-49.063,56.333c-5.685,6.527-12.127,13.926-15.99,22.996    c-4.707,11.05-4.395,22.871,0.838,31.619c8.971,15,28.066,17.082,41.649,17.343c1.888,0.036,3.781,0.061,5.678,0.086    c13.817,0.181,26.87,0.353,38.706,4.76c11.185,4.165,23.108,14.559,22.857,27.539c-0.144,7.439-4.208,14.641-8.511,22.266    c-2.881,5.105-5.86,10.385-7.952,16.184c-6.483,17.981-3.418,39.173,8.197,56.687c1.04,1.568,2.167,3.115,3.355,4.639    c-6.138,6.223-12.757,11.973-19.805,17.136c-3.342,2.448-4.066,7.141-1.619,10.482c1.47,2.005,3.748,3.068,6.057,3.068    c1.538,0,3.09-0.472,4.426-1.45c9.476-6.941,18.254-14.841,26.193-23.506C423.514,391.745,423.646,391.623,423.769,391.488z     M426.602,59.715c-2.312,2.779-2.312,6.812,0,9.592L446.8,93.592h-63.434V35.429H446.8L426.602,59.715z M417.277,373.21    c-8.872-13.377-11.396-29.972-6.588-43.309c1.664-4.613,4.21-9.125,6.905-13.901c5.028-8.91,10.229-18.124,10.445-29.348    c0.391-20.287-16.636-35.933-32.621-41.885c-14.273-5.314-29.255-5.511-43.744-5.702c-1.865-0.024-3.729-0.049-5.585-0.084    c-15.914-0.306-25.149-3.498-29.065-10.045c-2.736-4.576-2.702-11.488,0.09-18.042c2.934-6.888,8.306-13.057,13.501-19.023    l37.751-43.345v51.808c0,4.142,3.357,7.5,7.5,7.5s7.5-3.358,7.5-7.5v-64.422c0.239,0.162,0.481,0.32,0.719,0.483    c0.338,0.232,0.679,0.46,1.016,0.694c0.994,0.692,1.976,1.399,2.954,2.113c0.385,0.281,0.77,0.561,1.152,0.845    c0.94,0.698,1.871,1.408,2.795,2.126c0.413,0.321,0.823,0.644,1.232,0.969c0.884,0.7,1.761,1.407,2.63,2.125    c0.459,0.38,0.912,0.765,1.366,1.149c0.804,0.68,1.607,1.361,2.398,2.056c0.583,0.512,1.155,1.035,1.729,1.555    c0.645,0.583,1.293,1.161,1.929,1.753c30.017,28.054,48.73,66.734,51.612,108.282c0.007,0.105,0.019,0.21,0.026,0.315    c0.102,1.517,0.171,3.04,0.231,4.565c0.012,0.306,0.035,0.612,0.045,0.918c0.061,1.817,0.092,3.638,0.092,5.463    c0,1.438-0.026,2.871-0.063,4.302c-0.014,0.553-0.033,1.106-0.053,1.658c-0.029,0.811-0.066,1.62-0.106,2.429    c-1.163,22.822-7.056,44.936-17.188,65.061c-0.145,0.286-0.284,0.574-0.43,0.86c-0.379,0.741-0.768,1.477-1.158,2.213    c-0.272,0.513-0.547,1.025-0.825,1.535c-0.347,0.638-0.696,1.275-1.052,1.909c-0.531,0.944-1.07,1.882-1.62,2.815    c-0.181,0.309-0.362,0.618-0.546,0.925c-0.682,1.139-1.377,2.271-2.087,3.394c-0.138,0.219-0.279,0.437-0.418,0.655    c-0.761,1.192-1.534,2.377-2.326,3.549c-0.006,0.009-0.012,0.018-0.018,0.028c-2.824,4.176-5.85,8.217-9.047,12.12    C417.985,374.257,417.625,373.735,417.277,373.21z"/>
		<path d="M155.027,433.314c7.558-1.858,14.919-4.42,22.006-7.665c6.294-2.881,12.379-6.279,18.18-10.217    c23.061-15.66,39.874-38.244,48.451-63.941c5.213,6.22,10.332,13.254,15.047,19.738c13.067,17.97,20.297,27.369,29.112,27.827    c0.24,0.013,0.479,0.02,0.718,0.02c3.358,0,6.493-1.265,9.104-3.684c9.573-8.867,10.921-33.655,11.608-62.729    c0.071-3.029,0.137-5.8,0.223-8.191c0.507-14.355-19.913-25.75-45.766-40.175c-6.714-3.746-13.626-7.605-19.831-11.387    c-13.843-42.1-49.472-74.403-93.491-83.497c1.274-2.195,2.591-4.368,3.968-6.504c0.06-0.093,0.12-0.185,0.18-0.277    c0.704-1.088,1.425-2.167,2.155-3.239c0.121-0.177,0.24-0.357,0.362-0.533c0.748-1.088,1.511-2.167,2.286-3.238    c0.325-0.449,0.658-0.892,0.989-1.338c0.414-0.56,0.83-1.118,1.251-1.673c0.473-0.622,0.949-1.242,1.431-1.857    c0.219-0.281,0.442-0.558,0.663-0.837c0.47-0.592,0.942-1.182,1.42-1.768c37.228-2.782,67.288,2.334,80.783,13.832    c4.974,4.238,7.608,9.236,8.056,15.28c0.794,10.74-2.639,17.589-11.848,23.638c-3.463,2.274-4.426,6.924-2.151,10.386    c1.44,2.193,3.834,3.383,6.275,3.383c1.413,0,2.842-0.399,4.11-1.232c13.688-8.991,19.763-21.186,18.572-37.282    c-0.747-10.105-5.218-18.715-13.285-25.59c-18.497-15.762-51.987-18.453-75.947-18.068c11.769-11.12,25.164-20.524,39.73-27.737    c3.712-1.838,5.231-6.337,3.393-10.049c-1.838-3.711-6.335-5.23-10.049-3.393c-21.765,10.778-41.141,26.025-56.834,44.443    c-0.102,0.107-0.206,0.21-0.302,0.323c-0.562,0.664-1.104,1.345-1.656,2.017c-0.148,0.18-0.297,0.36-0.444,0.541    c-0.68,0.834-1.356,1.67-2.02,2.516c-0.294,0.373-0.58,0.752-0.871,1.128c-0.869,1.125-1.728,2.257-2.57,3.401    c-0.569,0.771-1.132,1.546-1.688,2.326c-0.313,0.44-0.628,0.88-0.937,1.323c-0.901,1.289-1.788,2.588-2.655,3.901    c-0.014,0.022-0.028,0.044-0.043,0.066c-0.959,1.453-1.893,2.923-2.809,4.405c-0.022,0.035-0.044,0.071-0.065,0.106    c-1.894,3.066-3.696,6.191-5.401,9.372c-3.098-0.231-6.227-0.351-9.384-0.351C56.099,186.832,0,242.93,0,311.884    c0,41.497,20.521,80.207,54.895,103.55c20.736,14.075,44.997,21.515,70.158,21.515c6.291,0,12.525-0.465,18.661-1.382    c2.751-0.411,5.478-0.927,8.186-1.519C152.947,433.819,153.987,433.57,155.027,433.314z M179.643,407.48    c-0.926,0.53-1.861,1.039-2.8,1.541c-0.223,0.119-0.442,0.247-0.666,0.365c-1.163,0.611-2.336,1.2-3.518,1.768    c-0.365,0.175-0.735,0.336-1.101,0.507c-0.824,0.385-1.649,0.77-2.483,1.134c-0.468,0.204-0.941,0.394-1.411,0.592    c-0.74,0.311-1.48,0.623-2.227,0.917c-0.51,0.201-1.025,0.39-1.538,0.583c-0.715,0.27-1.43,0.539-2.15,0.794    c-0.535,0.189-1.073,0.367-1.61,0.547c-0.707,0.238-1.415,0.473-2.127,0.696c-0.55,0.172-1.103,0.336-1.656,0.5    c-0.707,0.209-1.415,0.414-2.126,0.609c-0.561,0.154-1.123,0.301-1.686,0.446c-0.712,0.183-1.426,0.359-2.142,0.528    c-0.566,0.134-1.134,0.263-1.703,0.388c-0.721,0.158-1.444,0.306-2.169,0.449c-0.568,0.112-1.135,0.223-1.705,0.327    c-0.736,0.133-1.474,0.255-2.213,0.373c-0.564,0.09-1.127,0.183-1.693,0.264c-0.756,0.109-1.515,0.203-2.274,0.297    c-0.553,0.068-1.104,0.141-1.659,0.2c-0.623,0.067-1.25,0.117-1.875,0.174l26.872-42.164    c10.417,5.276,18.084,14.941,20.775,26.305c-0.615,0.379-1.235,0.747-1.856,1.114C180.482,406.98,180.066,407.238,179.643,407.48z     M111.458,421.102c-0.758-0.093-1.516-0.187-2.271-0.296c-0.567-0.082-1.133-0.175-1.698-0.265    c-0.737-0.118-1.474-0.239-2.208-0.372c-0.571-0.104-1.14-0.215-1.709-0.328c-0.723-0.143-1.445-0.291-2.165-0.448    c-0.57-0.125-1.139-0.255-1.707-0.388c-0.715-0.168-1.428-0.344-2.139-0.527c-0.564-0.145-1.127-0.292-1.688-0.446    c-0.71-0.195-1.417-0.399-2.123-0.608c-0.554-0.164-1.108-0.328-1.66-0.501c-0.71-0.223-1.417-0.457-2.122-0.694    c-0.539-0.181-1.079-0.359-1.615-0.549c-0.719-0.254-1.432-0.523-2.145-0.792c-0.515-0.194-1.031-0.383-1.543-0.585    c-0.746-0.294-1.485-0.606-2.224-0.917c-0.471-0.198-0.944-0.388-1.413-0.592c-0.835-0.365-1.661-0.75-2.487-1.135    c-0.365-0.17-0.733-0.331-1.096-0.505c-1.183-0.569-2.358-1.158-3.522-1.77c-0.201-0.105-0.397-0.22-0.597-0.327    c-0.962-0.513-1.921-1.035-2.869-1.579c-0.411-0.236-0.816-0.486-1.224-0.727c-0.632-0.373-1.263-0.747-1.889-1.133    c2.69-11.364,10.357-21.028,20.775-26.305l26.873,42.163c-0.625-0.057-1.251-0.107-1.875-0.174    C112.564,421.243,112.011,421.17,111.458,421.102z M105.65,375.003c0.135-0.002,0.267-0.009,0.402-0.009h38.001    c0.136,0,0.269,0.007,0.404,0.009c0.724,0.007,1.446,0.031,2.166,0.077c0.087,0.006,0.174,0.011,0.261,0.017l-21.832,34.255    l-21.833-34.255c0.087-0.006,0.175-0.012,0.262-0.017C104.203,375.033,104.926,375.01,105.65,375.003z M256.401,297.396    c10.354,5.777,20.133,11.234,27.557,16.438c10.021,7.024,10.513,10.053,10.527,10.104c-0.088,2.439-0.155,5.273-0.229,8.371    c-0.234,9.939-0.527,22.31-1.772,33.046c-1.38,11.897-3.372,16.523-4.394,18.191c-3.992-2.906-11.869-13.739-17.249-21.138    c-6.899-9.488-14.619-20.096-22.719-28.366c1.302-7.246,1.982-14.655,1.982-22.157c0-6.392-0.484-12.673-1.414-18.81    C251.262,294.527,253.846,295.97,256.401,297.396z M15,311.884c0-60.683,49.369-110.052,110.053-110.052    s110.053,49.369,110.053,110.052c0,32.811-14.586,63.638-39.488,84.462c-5.509-15.334-17.743-27.748-33.477-33.251    c-0.229-0.104-0.465-0.196-0.706-0.276c-0.646-0.215-1.292-0.417-1.937-0.607c-0.071-0.022-0.144-0.044-0.221-0.067    c-0.115-0.037-0.23-0.071-0.348-0.102l-1.647-0.434c-0.028-0.007-0.057-0.012-0.085-0.019c-0.17-0.042-0.341-0.075-0.511-0.116    c-0.452-0.106-0.905-0.214-1.358-0.308c-0.042-0.01-0.085-0.019-0.128-0.028c-1.159-0.241-2.325-0.437-3.497-0.602    c-0.23-0.033-0.453-0.074-0.686-0.104v0.001l-0.336-0.044c-0.618-0.074-1.241-0.135-1.89-0.19    c-0.349-0.03-0.698-0.053-1.048-0.076c-0.297-0.021-0.593-0.044-0.893-0.058c-0.059-0.003-0.115-0.003-0.173-0.006    c-0.874-0.042-1.749-0.07-2.626-0.07h-37.998c-0.875,0-1.749,0.027-2.621,0.069c-0.062,0.003-0.121,0.003-0.184,0.007    c-0.309,0.016-0.618,0.039-0.927,0.061c-0.859,0.059-1.716,0.133-2.57,0.232c-0.124,0.014-0.24,0.021-0.366,0.036l-0.3,0.04v0    c-0.224,0.029-0.438,0.068-0.659,0.1c-1.216,0.171-2.427,0.377-3.63,0.63c-0.006,0.001-0.011,0.002-0.017,0.004    c-0.585,0.121-1.185,0.256-1.813,0.41c-0.024,0.006-0.048,0.011-0.073,0.017c-0.052,0.013-0.1,0.023-0.151,0.036l-1.57,0.415    c-0.112,0.03-0.225,0.063-0.335,0.098c-0.078,0.023-0.156,0.046-0.235,0.071c-0.644,0.189-1.287,0.391-1.932,0.605    c-0.24,0.08-0.476,0.172-0.704,0.275c-15.734,5.504-27.969,17.918-33.479,33.251C29.586,375.52,15,344.695,15,311.884z"/>
		<path d="M125.053,345.483c28.695,0,52.041-23.346,52.041-52.041v-13.067v-8.408c0-0.927-0.027-1.848-0.075-2.764    c-0.011-0.205-0.033-0.408-0.047-0.612c-0.046-0.718-0.099-1.434-0.174-2.143c-0.023-0.213-0.056-0.423-0.081-0.635    c-0.083-0.701-0.173-1.401-0.284-2.093c-0.034-0.212-0.077-0.422-0.114-0.633c-0.119-0.688-0.246-1.373-0.391-2.052    c-0.047-0.22-0.102-0.438-0.152-0.658c-0.151-0.663-0.311-1.322-0.488-1.975c-0.064-0.236-0.134-0.47-0.201-0.705    c-0.178-0.625-0.365-1.245-0.566-1.86c-0.086-0.262-0.176-0.523-0.266-0.784c-0.198-0.574-0.404-1.143-0.621-1.708    c-0.113-0.294-0.229-0.587-0.348-0.88c-0.208-0.514-0.425-1.023-0.649-1.528c-0.147-0.332-0.296-0.664-0.45-0.993    c-0.209-0.445-0.426-0.884-0.647-1.322c-0.188-0.374-0.376-0.748-0.573-1.118c-0.196-0.366-0.402-0.727-0.606-1.088    c-0.24-0.424-0.477-0.848-0.729-1.266c-0.156-0.259-0.323-0.512-0.483-0.768c-1.583-2.526-3.385-4.924-5.398-7.163    c-0.079-0.088-0.154-0.178-0.234-0.266c-0.43-0.472-0.876-0.932-1.325-1.39c-0.171-0.174-0.34-0.351-0.513-0.523    c-0.411-0.407-0.832-0.805-1.258-1.2c-0.231-0.214-0.462-0.428-0.697-0.639c-0.196-0.175-0.381-0.359-0.58-0.531    c-0.086-0.08-0.174-0.158-0.264-0.234l-0.265-0.218c-0.4-0.336-0.802-0.669-1.193-0.979c-0.189-0.151-0.381-0.299-0.566-0.442    c-0.221-0.171-0.444-0.335-0.667-0.502c-0.013-0.01-0.025-0.019-0.038-0.029c-0.142-0.106-0.283-0.216-0.423-0.319    c-0.226-0.166-0.453-0.329-0.683-0.491c-0.302-0.214-0.608-0.422-0.915-0.628c-0.001-0.001-0.003-0.002-0.004-0.003    c-0.049-0.033-0.096-0.067-0.145-0.1c-0.258-0.173-0.517-0.345-0.787-0.52c-0.32-0.206-0.643-0.406-0.962-0.601    c-0.047-0.029-0.096-0.057-0.143-0.087c-0.055-0.033-0.109-0.066-0.164-0.099c-0.208-0.127-0.414-0.254-0.627-0.38    c-0.24-0.14-0.482-0.276-0.726-0.412l-0.212-0.119c-0.125-0.07-0.245-0.134-0.369-0.203c-0.087-0.048-0.174-0.097-0.262-0.144    c-0.115-0.063-0.235-0.132-0.348-0.191c-0.151-0.081-0.306-0.159-0.459-0.236l-0.134-0.068c-0.123-0.063-0.25-0.116-0.374-0.178    c-0.65-0.328-1.307-0.641-1.972-0.943c-0.237-0.108-0.473-0.218-0.711-0.322c-0.682-0.297-1.373-0.576-2.07-0.843    c-0.218-0.084-0.434-0.177-0.653-0.258c-0.845-0.312-1.7-0.603-2.566-0.871c-0.444-0.138-0.894-0.256-1.341-0.382    c-0.442-0.124-0.883-0.251-1.33-0.364c-0.5-0.126-1.004-0.238-1.508-0.349c-0.412-0.091-0.824-0.18-1.239-0.26    c-0.502-0.098-1.005-0.188-1.51-0.27c-0.449-0.074-0.902-0.139-1.355-0.201c-0.47-0.064-0.939-0.129-1.412-0.18    c-0.552-0.06-1.108-0.104-1.665-0.147c-0.384-0.029-0.765-0.067-1.15-0.088c-0.954-0.052-1.914-0.084-2.882-0.084    c-28.696,0-52.042,23.346-52.042,52.041v21.475C73.011,322.138,96.356,345.483,125.053,345.483z M88.047,270.536    c0.013-0.339,0.031-0.677,0.053-1.014c0.019-0.286,0.04-0.572,0.065-0.856c0.03-0.332,0.064-0.663,0.102-0.993    c0.033-0.286,0.069-0.57,0.109-0.853c0.045-0.324,0.095-0.648,0.148-0.969c0.047-0.283,0.098-0.566,0.152-0.847    c0.061-0.317,0.125-0.633,0.193-0.947c0.062-0.281,0.127-0.561,0.195-0.84c0.075-0.309,0.153-0.616,0.236-0.922    c0.075-0.279,0.155-0.556,0.237-0.832c0.089-0.3,0.181-0.599,0.277-0.896c0.09-0.277,0.184-0.552,0.28-0.825    c0.102-0.291,0.206-0.58,0.315-0.867c0.104-0.273,0.212-0.544,0.322-0.815c0.115-0.282,0.231-0.562,0.352-0.841    c0.117-0.269,0.24-0.536,0.363-0.802c0.126-0.272,0.254-0.542,0.386-0.81c0.132-0.266,0.269-0.53,0.406-0.792    c0.137-0.261,0.275-0.522,0.418-0.78c0.145-0.261,0.295-0.518,0.446-0.775c0.148-0.252,0.297-0.504,0.451-0.752    c0.158-0.255,0.322-0.506,0.486-0.757c0.158-0.242,0.317-0.484,0.48-0.722c0.171-0.249,0.348-0.493,0.525-0.738    c0.168-0.232,0.337-0.465,0.51-0.693c0.184-0.242,0.374-0.479,0.563-0.717c0.177-0.221,0.354-0.443,0.536-0.661    c0.197-0.235,0.399-0.464,0.602-0.694c0.186-0.212,0.371-0.424,0.562-0.631c0.209-0.226,0.423-0.447,0.637-0.668    c0.194-0.201,0.387-0.402,0.586-0.599c0.221-0.218,0.448-0.431,0.675-0.643c0.202-0.189,0.402-0.38,0.608-0.565    c0.233-0.209,0.472-0.412,0.711-0.616c0.209-0.178,0.416-0.358,0.629-0.532c0.244-0.199,0.494-0.391,0.742-0.584    c0.216-0.168,0.431-0.337,0.651-0.5c0.255-0.189,0.516-0.37,0.776-0.552c0.222-0.156,0.443-0.314,0.669-0.466    c0.265-0.177,0.536-0.346,0.805-0.517c0.23-0.145,0.458-0.294,0.691-0.434c0.274-0.165,0.555-0.322,0.834-0.48    c0.235-0.134,0.469-0.271,0.708-0.399c0.284-0.153,0.575-0.297,0.864-0.443c0.241-0.122,0.48-0.247,0.724-0.364    c0.292-0.14,0.59-0.269,0.886-0.401c0.248-0.111,0.494-0.226,0.745-0.331c0.302-0.127,0.609-0.243,0.915-0.361    c0.251-0.098,0.5-0.2,0.754-0.292c0.312-0.114,0.63-0.215,0.946-0.321c0.254-0.085,0.506-0.175,0.762-0.254    c0.32-0.099,0.645-0.185,0.968-0.276c0.259-0.072,0.516-0.15,0.777-0.217c0.332-0.085,0.669-0.157,1.005-0.232    c0.257-0.058,0.511-0.122,0.771-0.175c0.346-0.071,0.698-0.127,1.047-0.188c0.254-0.044,0.506-0.095,0.762-0.134    c0.365-0.055,0.734-0.096,1.102-0.14c0.245-0.03,0.488-0.067,0.735-0.092c0.406-0.041,0.817-0.066,1.226-0.094    c0.213-0.014,0.424-0.037,0.638-0.048c0.625-0.031,1.254-0.048,1.887-0.048c0.688,0,1.371,0.023,2.051,0.06    c0.273,0.015,0.544,0.041,0.815,0.062c0.396,0.03,0.793,0.062,1.187,0.104c0.336,0.037,0.67,0.082,1.004,0.128    c0.323,0.044,0.646,0.091,0.967,0.143c0.358,0.059,0.714,0.122,1.068,0.191c0.299,0.058,0.597,0.122,0.895,0.188    c0.353,0.078,0.706,0.156,1.055,0.244c0.334,0.084,0.666,0.179,0.997,0.273c0.3,0.084,0.601,0.164,0.898,0.255    c0.624,0.194,1.244,0.402,1.858,0.63c0.108,0.04,0.212,0.086,0.32,0.126c0.549,0.21,1.096,0.43,1.637,0.667    c0.124,0.054,0.245,0.112,0.368,0.167c0.531,0.24,1.06,0.491,1.583,0.757c0.265,0.135,0.532,0.266,0.793,0.407    c0.13,0.071,0.26,0.142,0.388,0.215c0.376,0.208,0.749,0.422,1.117,0.643c0.107,0.066,0.214,0.129,0.324,0.197    c0.023,0.014,0.045,0.028,0.068,0.043c0.393,0.242,0.781,0.491,1.164,0.747c0.009,0.006,0.018,0.012,0.027,0.018    c0.11,0.073,0.217,0.149,0.325,0.223c0.364,0.25,0.724,0.505,1.078,0.767c0.117,0.086,0.233,0.175,0.35,0.263    c0.354,0.269,0.705,0.544,1.049,0.825c0.097,0.079,0.194,0.158,0.286,0.235c0.267,0.222,0.526,0.452,0.786,0.681    c0.257,0.227,0.512,0.456,0.762,0.689c0.219,0.204,0.435,0.41,0.649,0.619c0.222,0.217,0.439,0.436,0.655,0.657    c0.224,0.23,0.447,0.461,0.665,0.697c0.195,0.211,0.385,0.426,0.575,0.641c0.222,0.251,0.443,0.502,0.658,0.759    c0.178,0.213,0.349,0.43,0.522,0.646c0.211,0.265,0.424,0.529,0.628,0.799c0.172,0.228,0.336,0.461,0.502,0.693    c0.191,0.265,0.384,0.528,0.568,0.797c0.189,0.279,0.368,0.563,0.549,0.847c0.147,0.23,0.3,0.456,0.443,0.69    c0.979,1.605,1.834,3.28,2.556,5.011c0.019,0.046,0.036,0.092,0.055,0.138c0.22,0.535,0.43,1.074,0.625,1.618    c0.029,0.081,0.054,0.163,0.083,0.243c0.179,0.51,0.35,1.024,0.506,1.542c0.034,0.112,0.063,0.226,0.096,0.339    c0.142,0.486,0.276,0.974,0.398,1.466c0.037,0.151,0.07,0.304,0.105,0.455c0.106,0.453,0.207,0.908,0.296,1.365    c0.038,0.195,0.07,0.391,0.105,0.587c0.074,0.414,0.143,0.83,0.203,1.247c0.034,0.241,0.063,0.484,0.093,0.727    c0.046,0.374,0.089,0.748,0.123,1.123c0.026,0.284,0.046,0.57,0.065,0.856c0.023,0.339,0.044,0.679,0.058,1.02    c0.005,0.125,0.006,0.252,0.01,0.378c-5.813-2.354-10.828-6.458-14.352-11.888c-1.269-1.955-3.374-3.209-5.697-3.394    c-2.316-0.181-4.6,0.721-6.162,2.452c-8.655,9.591-21.014,15.092-33.906,15.092c-4.769,0-9.429-0.727-13.91-2.165    C88.041,270.801,88.042,270.668,88.047,270.536z M88.011,286.464c4.541,1.073,9.197,1.634,13.937,1.634    c14.202,0,27.912-5.02,38.735-13.995c5.855,6.068,13.242,10.38,21.411,12.5v6.838c0,20.424-16.616,37.041-37.041,37.041    s-37.042-16.617-37.042-37.041V286.464z"/>
	</g>
</g>















</svg>
